# xmcd
#
# Track frame offsets: 
#        150
#        17613
#        45296
#        61166
#        76614
#        90262
#        113163
#        125673
#        138089
#        153729
#        168662
#        181835
#        197408
#        214304
#        228194
#        251347
#        266338
#        294291
#        318706
#        342539
#
# Disc length: 4787 seconds
#
# Revision: 0
# Processed by: cddbd v1.5.2PL0 Copyright (c) Steve Scherf et al.
# Submitted via: ExactAudioCopy v0.99pb5
#
DISCID=0712b114
DTITLE=WIDMANN, Götz - Drogen
DYEAR=2004
DGENRE=Folk/Rock
TTITLE0=Politiker beim Ficken
TTITLE1=Wie ich eine Frau war
TTITLE2=Zöllner vom Vollzug abhalten auf der A4
TTITLE3=Chronik meins Alkolismuss
TTITLE4=Jesus und Stoiber
TTITLE5=Die Zaubersteuer
TTITLE6=Ich liebe mich
TTITLE7=Ich schäme mich beim Wichsen
TTITLE8=Nord (Ansage)
TTITLE9=Ich brauch Liebe
TTITLE10=Der Esel
TTITLE11=Dein Vater hat nen Kater
TTITLE12=Das Leben sollte mit dem Tod beginnen
TTITLE13=Frauen und Alkohol
TTITLE14=Nimbin (Ansage)
TTITLE15=Hank starb an ner Überdosis Hasch
TTITLE16=Eduard der Haschischhund
TTITLE17=Die zwei Trauben
TTITLE18=Landkommunenhippie
TTITLE19=Alexandra - Mein Freund der Baum ist tot
EXTD=
EXTT0=
EXTT1=
EXTT2=
EXTT3=
EXTT4=
EXTT5=
EXTT6=
EXTT7=
EXTT8=
EXTT9=
EXTT10=
EXTT11=
EXTT12=
EXTT13=
EXTT14=
EXTT15=
EXTT16=
EXTT17=
EXTT18=
EXTT19=
PLAYORDER=
